# xmcd CD database file
#
# Track frame offsets:
#	150
#	10613
#	25675
#	36275
#	51950
#	64713
#	77888
#	92438
#	107550
#	125075
#	136375
#	146775
#	159750
#	174375
#	184913
#	196425
#	206325
#	220350
#	232725
#	246600
#
# Disc length: 3481 seconds
#
# Revision: 2
# Processed by: cddbd v1.5.1PL0 Copyright (c) Steve Scherf et al.
# Submitted via: CDex 1.51
#
DISCID=140d9714
DTITLE=Kenny Rogers - The Best Of Kenny Rogers
DYEAR=1900
DGENRE=Country
TTITLE0=Ticket to nowhere
TTITLE1=Conditions (Just dropped in)
TTITLE2=She even woke me up to say goodbye
TTITLE3=My Washington woman
TTITLE4=Run through your mind
TTITLE5=Sleep comes easy
TTITLE6=After all (I live my life)
TTITLE7=For the good times
TTITLE8=Something burning
TTITLE9=Hurry up, love
TTITLE10=Trying just as hard
TTITLE11=Ruby don't take your love to town
TTITLE12=Heed the call
TTITLE13=We all got to help each other
TTITLE14=Poem for my little lady
TTITLE15=Where does Rosie go
TTITLE16=Sunshine
TTITLE17=Rubin James
TTITLE18=Loser
TTITLE19=Church without a name
EXTD=
EXTT0=
EXTT1=
EXTT2=
EXTT3=
EXTT4=
EXTT5=
EXTT6=
EXTT7=
EXTT8=
EXTT9=
EXTT10=
EXTT11=
EXTT12=
EXTT13=
EXTT14=
EXTT15=
EXTT16=
EXTT17=
EXTT18=
EXTT19=
PLAYORDER=
